<?xml version="1.0" encoding="utf-8"?>
<!-- Svg Vector Icons : http://www.onlinewebfonts.com/icon -->
<!DOCTYPE svg PUBLIC "-//W3C//DTD SVG 1.1//EN" "http://www.w3.org/Graphics/SVG/1.1/DTD/svg11.dtd">
<svg version="1.1" xmlns="http://www.w3.org/2000/svg" xmlns:xlink="http://www.w3.org/1999/xlink" x="0px" y="0px" viewBox="0 0 1000 1000" enable-background="new 0 0 1000 1000" xml:space="preserve">
<metadata> Svg Vector Icons : http://www.onlinewebfonts.com/icon </metadata>
<g><path d="M873.3,103.3H126.7C62.3,103.3,10,155.7,10,220v560c0,64.3,52.3,116.7,116.7,116.7h746.7c64.3,0,116.7-52.3,116.7-116.7V220C990,155.7,937.7,103.3,873.3,103.3z M943.3,780c0,38.6-31.4,70-70,70H126.7c-38.6,0-70-31.4-70-70V220c0-38.6,31.4-70,70-70h746.7c38.6,0,70,31.4,70,70V780z"/><path d="M572.9,286.5h259.6v46.7H572.9V286.5z"/><path d="M572.9,473.2h259.6v46.7H572.9V473.2z"/><path d="M176.3,659.8h656.2v46.7H176.3V659.8z"/><path d="M231.7,542.3c19.7-40.5,59.9-65.6,105-65.6c43.2,0,82.7,23.7,103.1,61.9c9,17,13.6,35.4,13.6,54.7H500c0-26.7-6.6-53.2-19.1-76.7c-15.9-29.9-40.4-53.1-69.3-68.1c25.3-21.4,41.7-53,41.7-88.6c0-64.3-52.3-116.7-116.7-116.7C272.3,243.3,220,295.7,220,360c0,35.6,16.4,67.1,41.5,88.5c-30.5,15.8-56,40.9-71.8,73.4c-10.9,22.4-16.4,46.4-16.4,71.5H220C220,575.4,223.9,558.3,231.7,542.3z M266.7,360c0-38.6,31.4-70,70-70c38.6,0,70,31.4,70,70c0,38.6-31.4,70-70,70C298.1,430,266.7,398.6,266.7,360z"/></g>
</svg>